<svg version="1.2" xmlns="http://www.w3.org/2000/svg" viewBox="0 0 1280 300" width="1280" height="300">
	<title>New Project</title>
	<style>
		.s0 { fill: #000000 } 
	</style>
	<path id="tantovale" class="s0" aria-label="tantovale"  d="m114.6 21.4c-7.7-5.3-14-8.2-18.8-8.2-3.4 0-6.3 1.4-8.7 4.8-3.4 6.3-11.6 26.1-24.7 59.9h-15.9c-4.8 0-8.2 2.4-10.2 7.2-1.4 3.9 0.5 7.3 4.4 7.3h15.9c-33.8 90.8-50.7 145.9-50.7 165.7 0 2.4 0 3.8 0.5 4.3 1.4 4.4 6.3 8.2 14 12.1 7.7 3.8 14.5 5.8 20.8 5.8 23.6 0 54.1-38.2 91.3-114 0.9-2.4-0.5-5.3-3.9-7.7-4.3-2.5-7.2-2.5-8.2 0.4-13 26.6-27.1 50.3-43 71-15.5 20.8-27 31-34.8 31 1-16.5 19.8-72.5 56.5-168.6h16.9c4.9 0 8.3-2.4 10.2-7.3 1.9-3.8 0-7.2-3.9-7.2h-17.4c7.8-20.3 13.6-34.3 17.4-42 0.5-0.5 0.5-1 0.5-2.4 0-3.9-2.9-7.8-8.2-12.1zm146.8 88.4c-7.7-5.3-14-8.2-19.3-8.2-4.3 0-7.2 1.4-8.2 4.8-1.4 1.9-5.3 10.6-7.2 15-8.3-19.8-23.7-30-46.9-30-13 0-26.1 8.7-39.1 26.1-12.6 17.4-22.2 37.2-29.5 59.9-7.2 22.2-10.6 42-10.6 58.9 0 8.2 1 14.5 2.9 19.3 1.9 5.4 8.2 11.2 18.3 16.5 10.2 5.3 20.8 8.2 31.4 8.2 7.8 0 19.8-16 36.7-47.4-1.9 8.7-2.9 16-2.9 21.8 0 3.8 0.5 6.3 1 7.7 1.5 4.4 6.3 8.2 14 12.1 7.8 3.8 14.5 5.8 20.8 5.8 23.7 0 54.1-38.2 90.8-114 1.4-2.4 0.5-5.3-3.9-8.2-3.8-2.4-6.7-2-8.2 0.5-12.5 26.5-26.5 50.2-42.5 71-15.4 20.7-27 31.4-34.8 31.4 0.5-11.2 6.3-33.4 17.4-66.7 11.6-33.8 20.8-57 27.6-70v-1c0.4-0.5 0.4-1 0.4-1.5 0-3.8-2.9-7.7-8.2-12zm-57 57c-6.2 14-11.6 24.6-15.9 32.3l-14 27.1c-11.1 19.8-18.4 29.9-22.7 29.9-3.9 0-6.3-1.9-7.7-5.3-1.5-4.3-2.5-9.2-2.5-15 0-21.7 6.8-46.3 19.8-73.4 13.6-27.5 28.5-41 45-41 3.8 0 9.1 9.6 11.1 18.8zm130.4-74.4c-5.3 0-8.7 1.5-9.7 3.9-13 26.5-24.6 56-35.2 87.4-11.1 31.4-16.4 55.1-16.4 70 0 11.2 11.1 20.3 24.6 24.7l1 0.5h1.4c6.3 0 9.7-3.4 9.7-10.2 3.3-16.4 14.9-42.5 34.3-78.7 19.3-36.2 37.6-61.4 55.5-75.4-10.1 22.7-20.8 48.8-30.9 78.3-10.2 29.5-15 50.7-15 62.8 0 2.4 0.5 4.8 1 6.7 1.4 4.4 6.3 8.3 14 12.1 7.7 3.9 14.5 5.8 20.8 5.8 24.1 0 54.5-37.7 91.2-113.5 1.5-2.4 0.5-5.3-3.3-8.7-3.9-2.4-6.8-1.9-8.2 0.5-12.6 26.1-27.1 49.7-43 71-16 20.8-27.6 31.4-35.3 31.4 0.5-10.6 7.3-33.8 20.3-70 13.5-36.3 24.1-61.4 31.4-75.4 0.5-0.5 0.5-1 0.5-2.4 0-3.9-2.9-7.7-8.2-12.1-7.3-5.3-13.6-8.2-18.9-8.2-25.1 0-55 34.3-80.6 80.7 5.8-16.5 14-36.3 24.6-59.4 0.5-0.5 0.5-1.5 0.5-2.9 0-5.4-3.4-9.7-10.6-13.1-6.8-3.8-12.1-5.8-15.5-5.8zm214.5-71c-7.8-5.3-14.1-8.2-18.9-8.2-3.4 0-6.3 1.5-8.7 4.8-3.4 6.3-11.6 26.1-24.6 59.9h-16c-4.8 0-8.2 2.4-10.1 7.3-1.4 3.8 0.5 7.2 4.4 7.2h15.9c-33.8 90.8-50.7 145.9-50.7 165.7 0 2.4 0 3.9 0.5 4.3 1.4 4.4 6.2 8.3 14 12.1 7.7 3.9 14.5 5.8 20.7 5.8 23.7 0 54.1-38.1 91.3-114 1-2.4-0.5-5.3-3.8-7.7-4.4-2.4-7.3-2.4-8.2 0.5-13.1 26.5-27.1 50.2-43 71-15.5 20.7-27.1 30.9-34.8 30.9 1-16.4 19.8-72.5 56.5-168.6h16.9c4.8 0 8.2-2.4 10.1-7.2 2-3.9 0-7.3-3.8-7.3h-17.4c7.7-20.3 13.5-34.3 17.4-42 0.5-0.5 0.5-1 0.5-2.4 0-3.9-2.9-7.7-8.2-12.1zm77.7 71c-24.1 0-44.9 13.1-62.3 39.1-16.9 25.6-25.6 53.2-25.6 82.2 0 39.1 19.8 67.6 58.9 67.6 13.6 0 26.6-7.3 39.6-21.8 13.1-14.9 23.7-32.8 31.9-54.1 5.3 1.5 8.7 2 11.1 2 16 0 26.6-11.1 41.6-40.1 1.9-3.4 0.9-6.3-3.4-9.2-3.4-2.9-6.3-2.4-8.7 1.5-11.6 22.7-15.9 27.5-23.7 27.5-4.3 0-7.7-1-10.6-2.9 2.9-11.1 4.4-21.7 4.4-32.9 0-35.2-17-58.9-53.2-58.9zm18.4 22.2c7.2 0 12.5 3.4 15.9 9.7-12.1 8.7-17.9 21.7-17.9 39.6 0 13.5 3.9 24.6 12.1 32.9-13.5 38.6-36.2 70-57.5 70-13 0-19.3-10.2-19.3-30.9-1.9-42 35.8-123.7 66.7-121.3zm107.2-14c-7.7-5.3-14-8.2-19.3-8.2-4.4 0-7.3 1.5-8.2 4.8-6.3 11.6-12.6 34.3-18.9 68.6-6.7 34.3-10.1 60.9-10.1 80.7 0 7.7 0.5 13 1.9 15.9 1.5 4.4 6.3 8.3 14 12.1 7.8 3.9 14.5 5.8 20.8 5.8 9.2 0 21.7-10.1 37.7-30.9 16.4-20.8 30.9-44.9 43.9-72.9 13.1-28.5 19.8-51.7 19.8-70.6 0-2.9-0.4-6.7-0.9-11.1-2-9.1-14.5-18.3-22.2-18.3-3.4 0-4.9 1.9-4.9 5.3 0 1 0 1.9 0.5 2.4 0.5 4.4 1 8.2 1 11.1 0 16.4-5.3 38.2-15.5 65.2-10.1 27.1-21.2 50.7-33.3 70.5-11.6 19.8-19.8 30-24.6 30 0.4-15.9 3.8-42 9.1-77.3 5.8-35.3 11.6-58.4 16.9-68.6l0.5-0.9v-1.5c0-3.9-2.9-7.7-8.2-12.1zm235.2 9.2c-7.7-5.3-14-8.2-19.3-8.2-4.3 0-7.2 1.4-8.2 4.8-1.4 2-5.3 10.7-7.2 15-8.3-19.8-23.7-29.9-46.9-29.9-13 0-26.1 8.6-39.1 26-12.6 17.4-22.2 37.2-29.5 59.9-7.2 22.2-10.6 42.1-10.6 59 0 8.2 1 14.4 2.9 19.3 1.9 5.3 8.2 11.1 18.3 16.4 10.2 5.3 20.8 8.2 31.4 8.2 7.8 0 19.8-15.9 36.8-47.3-2 8.7-2.9 15.9-2.9 21.7 0 3.9 0.4 6.3 0.9 7.7 1.5 4.4 6.3 8.3 14 12.1 7.8 3.9 14.5 5.8 20.8 5.8 23.7 0 54.1-38.1 90.8-114 1.5-2.4 0.5-5.3-3.9-8.2-3.8-2.4-6.7-1.9-8.2 0.5-12.5 26.6-26.5 50.2-42.5 71-15.4 20.8-27 31.4-34.8 31.4 0.5-11.1 6.3-33.3 17.4-66.7 11.6-33.8 20.8-57 27.6-70v-1c0.4-0.5 0.4-0.9 0.4-1.4 0-3.9-2.8-7.7-8.2-12.1zm-57 57c-6.2 14-11.6 24.6-15.9 32.4l-14 27c-11.1 19.8-18.4 30-22.7 30-3.9 0-6.3-2-7.7-5.4-1.5-4.3-2.5-9.1-2.5-14.9 0-21.8 6.8-46.4 19.9-73.4 13.5-27.6 28.5-41.1 44.9-41.1 3.8 0 9.2 9.7 11.1 18.8zm175.8-145.4c-7.7-5.3-14-8.2-18.8-8.2-3.4 0-6.3 1.5-8.7 4.9-9.2 16.9-24.7 57.4-47.4 120.7-22.7 63.3-33.8 103.4-33.8 119.3 0 2.4 0 3.9 0.5 4.4 1.5 4.3 6.3 8.2 14 12.1 7.7 3.8 14.5 5.7 20.8 5.7 23.2 0 53.6-37.6 90.8-113.5 1.4-2.9 0-5.8-3.4-8.2-4.3-2.4-7.2-2.4-8.2 0.5-13 26.6-27.1 50.2-43 71-15.4 20.8-27 30.9-34.8 30.9 0.5-10.6 12.1-47.3 34.8-110.1 22.7-63.3 37.7-101.4 44.9-115 0.5-0.4 0.5-0.9 0.5-2.4 0-3.8-2.9-7.7-8.2-12.1zm65.2 239.6c-20.3 3.9-37.7-11.1-38.6-34.8 53.1 0 96.1-58.9 98.5-88.3 1.5-23.2-13-45.4-44.4-45.4-22.7 0-43 12.5-61.9 38.1-18.3 25.1-28.5 51.7-30.4 79.7-2.9 42.5 27.5 76.3 77.3 70 29.9-4.3 50.7-24.6 66.2-50.2 7.2-12.1 13-22.2 16.9-29.5l16.9-33.8c1.4-2.9 0-5.8-3.4-8.2-4.4-2.4-7.2-2.4-8.2 0.5-33.3 68.1-63.8 97.6-88.9 101.9zm-36.2-50.2c-0.5 0-0.5 0.5-0.5 0.5 2.4-13.1 7.2-29.5 11.6-37.7 14.5-33.3 36.7-59.4 53.6-59.4 5.3 0 8.2 2.9 7.7 8.2-0.9 15.9-35.2 78.2-72.4 88.4z"/>
</svg>